<?xml version="1.0" encoding="UTF-8" standalone="no"?>
<!DOCTYPE svg PUBLIC "-//W3C//DTD SVG 1.1//EN"
 "http://www.w3.org/Graphics/SVG/1.1/DTD/svg11.dtd">
<!-- Generated by graphviz version 2.38.0 (20140413.2041)
 -->
<!-- Title: XLang Pages: 1 -->
<svg width="170pt" height="593pt"
 viewBox="0.00 0.00 170.50 593.00" xmlns="http://www.w3.org/2000/svg" xmlns:xlink="http://www.w3.org/1999/xlink">
<g id="graph0" class="graph" transform="scale(1 1) rotate(0) translate(4 588.997)">
<title>XLang</title>
<polygon fill="white" stroke="none" points="-4,4 -4,-588.997 166.498,-588.997 166.498,4 -4,4"/>
<!-- 0 -->
<g id="node1" class="node"><title>0</title>
<ellipse fill="grey" stroke="black" cx="57.4983" cy="-566.997" rx="18" ry="18"/>
<text text-anchor="middle" x="57.4983" y="-563.297" font-family="Times New Roman,serif" font-size="14.00">0</text>
</g>
<!-- 1 -->
<g id="node2" class="node"><title>1</title>
<ellipse fill="white" stroke="black" cx="57.4983" cy="-479.997" rx="18" ry="18"/>
<text text-anchor="middle" x="57.4983" y="-476.297" font-family="Times New Roman,serif" font-size="14.00">1</text>
</g>
<!-- 0&#45;&gt;1 -->
<g id="edge1" class="edge"><title>0&#45;&gt;1</title>
<path fill="none" stroke="black" d="M57.4983,-548.796C57.4983,-537.159 57.4983,-521.544 57.4983,-508.233"/>
<polygon fill="black" stroke="black" points="60.9984,-508.172 57.4983,-498.172 53.9984,-508.172 60.9984,-508.172"/>
<text text-anchor="middle" x="62.4983" y="-519.797" font-family="Times New Roman,serif" font-size="14.00">X</text>
</g>
<!-- 2 -->
<g id="node3" class="node"><title>2</title>
<ellipse fill="white" stroke="black" cx="28.4983" cy="-392.997" rx="18" ry="18"/>
<text text-anchor="middle" x="28.4983" y="-389.297" font-family="Times New Roman,serif" font-size="14.00">2</text>
</g>
<!-- 1&#45;&gt;2 -->
<g id="edge2" class="edge"><title>1&#45;&gt;2</title>
<path fill="none" stroke="black" d="M51.9068,-462.608C47.7745,-450.496 42.0663,-433.765 37.3212,-419.857"/>
<polygon fill="black" stroke="black" points="40.6142,-418.669 34.0726,-410.335 33.9892,-420.93 40.6142,-418.669"/>
<text text-anchor="middle" x="49.9983" y="-432.797" font-family="Times New Roman,serif" font-size="14.00">P</text>
</g>
<!-- 3 -->
<g id="node4" class="node"><title>3</title>
<ellipse fill="white" stroke="black" cx="82.4983" cy="-392.997" rx="18" ry="18"/>
<text text-anchor="middle" x="82.4983" y="-389.297" font-family="Times New Roman,serif" font-size="14.00">3</text>
</g>
<!-- 1&#45;&gt;3 -->
<g id="edge3" class="edge"><title>1&#45;&gt;3</title>
<path fill="none" stroke="black" d="M62.3185,-462.608C65.8236,-450.69 70.6441,-434.301 74.6946,-420.529"/>
<polygon fill="black" stroke="black" points="78.1436,-421.206 77.6075,-410.625 71.428,-419.231 78.1436,-421.206"/>
<text text-anchor="middle" x="76.9983" y="-432.797" font-family="Times New Roman,serif" font-size="14.00">L</text>
</g>
<!-- 9 -->
<g id="node10" class="node"><title>9</title>
<ellipse fill="white" stroke="black" cx="27.4983" cy="-305.997" rx="18" ry="18"/>
<text text-anchor="middle" x="27.4983" y="-302.297" font-family="Times New Roman,serif" font-size="14.00">9</text>
</g>
<!-- 2&#45;&gt;9 -->
<g id="edge4" class="edge"><title>2&#45;&gt;9</title>
<path fill="none" stroke="black" d="M28.2959,-374.796C28.159,-363.159 27.9753,-347.544 27.8187,-334.233"/>
<polygon fill="black" stroke="black" points="31.3178,-334.13 27.7003,-324.172 24.3183,-334.212 31.3178,-334.13"/>
<text text-anchor="middle" x="31.9983" y="-345.797" font-family="Times New Roman,serif" font-size="14.00">a</text>
</g>
<!-- 4 -->
<g id="node5" class="node"><title>4</title>
<ellipse fill="white" stroke="black" cx="82.4983" cy="-305.997" rx="18" ry="18"/>
<text text-anchor="middle" x="82.4983" y="-302.297" font-family="Times New Roman,serif" font-size="14.00">4</text>
</g>
<!-- 3&#45;&gt;4 -->
<g id="edge5" class="edge"><title>3&#45;&gt;4</title>
<path fill="none" stroke="black" d="M82.4983,-374.796C82.4983,-363.159 82.4983,-347.544 82.4983,-334.233"/>
<polygon fill="black" stroke="black" points="85.9984,-334.172 82.4983,-324.172 78.9984,-334.172 85.9984,-334.172"/>
<text text-anchor="middle" x="85.9983" y="-345.797" font-family="Times New Roman,serif" font-size="14.00">e</text>
</g>
<!-- 5 -->
<g id="node6" class="node"><title>5</title>
<ellipse fill="white" stroke="black" cx="137.498" cy="-305.997" rx="18" ry="18"/>
<text text-anchor="middle" x="137.498" y="-302.297" font-family="Times New Roman,serif" font-size="14.00">5</text>
</g>
<!-- 3&#45;&gt;5 -->
<g id="edge6" class="edge"><title>3&#45;&gt;5</title>
<path fill="none" stroke="black" d="M91.8283,-377.577C100.204,-364.633 112.649,-345.399 122.434,-330.277"/>
<polygon fill="black" stroke="black" points="125.628,-331.783 128.123,-321.486 119.751,-327.981 125.628,-331.783"/>
<text text-anchor="middle" x="117.998" y="-345.797" font-family="Times New Roman,serif" font-size="14.00">a</text>
</g>
<!-- 8 -->
<g id="node9" class="node"><title>8</title>
<ellipse fill="white" stroke="black" cx="82.4983" cy="-214.997" rx="18" ry="18"/>
<ellipse fill="none" stroke="black" cx="82.4983" cy="-214.997" rx="22" ry="22"/>
<text text-anchor="middle" x="82.4983" y="-211.297" font-family="Times New Roman,serif" font-size="14.00">8</text>
</g>
<!-- 4&#45;&gt;8 -->
<g id="edge7" class="edge"><title>4&#45;&gt;8</title>
<path fill="none" stroke="black" d="M82.4983,-287.836C82.4983,-276.437 82.4983,-261.13 82.4983,-247.575"/>
<polygon fill="black" stroke="black" points="85.9984,-247.187 82.4983,-237.187 78.9984,-247.187 85.9984,-247.187"/>
<text text-anchor="middle" x="85.9983" y="-258.797" font-family="Times New Roman,serif" font-size="14.00">x</text>
</g>
<!-- 6 -->
<g id="node7" class="node"><title>6</title>
<ellipse fill="white" stroke="black" cx="140.498" cy="-214.997" rx="18" ry="18"/>
<text text-anchor="middle" x="140.498" y="-211.297" font-family="Times New Roman,serif" font-size="14.00">6</text>
</g>
<!-- 5&#45;&gt;6 -->
<g id="edge8" class="edge"><title>5&#45;&gt;6</title>
<path fill="none" stroke="black" d="M138.077,-287.836C138.5,-275.278 139.083,-257.976 139.571,-243.499"/>
<polygon fill="black" stroke="black" points="143.083,-243.216 139.922,-233.104 136.087,-242.98 143.083,-243.216"/>
<text text-anchor="middle" x="141.998" y="-258.797" font-family="Times New Roman,serif" font-size="14.00">n</text>
</g>
<!-- 7 -->
<g id="node8" class="node"><title>7</title>
<ellipse fill="white" stroke="black" cx="140.498" cy="-119.997" rx="18" ry="18"/>
<ellipse fill="none" stroke="black" cx="140.498" cy="-119.997" rx="22" ry="22"/>
<text text-anchor="middle" x="140.498" y="-116.297" font-family="Times New Roman,serif" font-size="14.00">7</text>
</g>
<!-- 6&#45;&gt;7 -->
<g id="edge9" class="edge"><title>6&#45;&gt;7</title>
<path fill="none" stroke="black" d="M140.498,-196.939C140.498,-184.533 140.498,-167.378 140.498,-152.511"/>
<polygon fill="black" stroke="black" points="143.998,-152.191 140.498,-142.191 136.998,-152.191 143.998,-152.191"/>
<text text-anchor="middle" x="143.998" y="-163.797" font-family="Times New Roman,serif" font-size="14.00">g</text>
</g>
<!-- 10 -->
<g id="node11" class="node"><title>10</title>
<ellipse fill="white" stroke="black" cx="23.4983" cy="-214.997" rx="19.4965" ry="19.4965"/>
<text text-anchor="middle" x="23.4983" y="-211.297" font-family="Times New Roman,serif" font-size="14.00">10</text>
</g>
<!-- 9&#45;&gt;10 -->
<g id="edge10" class="edge"><title>9&#45;&gt;10</title>
<path fill="none" stroke="black" d="M26.727,-287.836C26.1807,-275.68 25.4346,-259.08 24.7973,-244.899"/>
<polygon fill="black" stroke="black" points="28.2817,-244.473 24.3362,-234.64 21.2888,-244.787 28.2817,-244.473"/>
<text text-anchor="middle" x="28.9983" y="-258.797" font-family="Times New Roman,serif" font-size="14.00">r</text>
</g>
<!-- 11 -->
<g id="node12" class="node"><title>11</title>
<ellipse fill="white" stroke="black" cx="23.4983" cy="-119.997" rx="19.4965" ry="19.4965"/>
<text text-anchor="middle" x="23.4983" y="-116.297" font-family="Times New Roman,serif" font-size="14.00">11</text>
</g>
<!-- 10&#45;&gt;11 -->
<g id="edge11" class="edge"><title>10&#45;&gt;11</title>
<path fill="none" stroke="black" d="M23.4983,-195.177C23.4983,-182.193 23.4983,-164.682 23.4983,-149.935"/>
<polygon fill="black" stroke="black" points="26.9984,-149.788 23.4983,-139.788 19.9984,-149.789 26.9984,-149.788"/>
<text text-anchor="middle" x="26.9983" y="-163.797" font-family="Times New Roman,serif" font-size="14.00">s</text>
</g>
<!-- 12 -->
<g id="node13" class="node"><title>12</title>
<ellipse fill="white" stroke="black" cx="23.4983" cy="-23.4983" rx="19.4968" ry="19.4968"/>
<ellipse fill="none" stroke="black" cx="23.4983" cy="-23.4983" rx="23.4965" ry="23.4965"/>
<text text-anchor="middle" x="23.4983" y="-19.7983" font-family="Times New Roman,serif" font-size="14.00">12</text>
</g>
<!-- 11&#45;&gt;12 -->
<g id="edge12" class="edge"><title>11&#45;&gt;12</title>
<path fill="none" stroke="black" d="M23.4983,-100.327C23.4983,-88.0344 23.4983,-71.6082 23.4983,-57.1875"/>
<polygon fill="black" stroke="black" points="26.9984,-57.1292 23.4983,-47.1292 19.9984,-57.1292 26.9984,-57.1292"/>
<text text-anchor="middle" x="26.9983" y="-68.7965" font-family="Times New Roman,serif" font-size="14.00">e</text>
</g>
</g>
</svg>
